<?xml version="1.0" standalone="no"?>
<!DOCTYPE svg PUBLIC "-//W3C//DTD SVG 20010904//EN"
 "http://www.w3.org/TR/2001/REC-SVG-20010904/DTD/svg10.dtd">
<svg version="1.0" xmlns="http://www.w3.org/2000/svg"
 width="505.000000pt" height="406.000000pt" viewBox="0 0 505.000000 406.000000"
 preserveAspectRatio="xMidYMid meet">

<g transform="translate(0.000000,406.000000) scale(0.100000,-0.100000)"
fill="#000000" stroke="none">
<path d="M0 2030 l0 -2030 2525 0 2525 0 0 2030 0 2030 -2525 0 -2525 0 0
-2030z m2815 1776 c247 -55 473 -150 669 -281 134 -89 222 -163 203 -171 -9
-3 -55 26 -115 73 -620 483 -1504 520 -2167 89 -321 -209 -567 -503 -718 -857
-171 -400 -194 -876 -64 -1291 l23 -73 91 0 c50 0 94 3 97 6 4 3 -5 26 -19 52
-14 25 -33 78 -41 118 -13 64 -21 79 -64 125 -28 30 -53 67 -59 90 -16 57 -14
149 3 164 8 6 27 42 41 80 36 95 50 105 144 105 139 -1 194 -54 262 -250 45
-132 75 -161 199 -190 89 -22 419 -57 492 -53 110 6 132 41 153 250 23 223 53
317 125 387 81 78 206 91 322 33 l59 -29 -28 30 c-92 98 -288 89 -381 -17 -71
-81 -103 -177 -127 -381 -8 -73 -21 -138 -30 -151 -28 -44 -116 -43 -433 2
-255 36 -266 42 -347 204 -29 58 -66 118 -81 134 -45 45 -109 69 -185 70 -87
0 -112 -16 -156 -107 l-34 -72 5 75 c6 84 29 172 50 189 40 34 975 158 1396
186 130 8 339 -18 510 -65 l45 -12 -43 -13 c-60 -18 -75 -33 -68 -67 8 -42 66
-177 83 -193 12 -12 55 -15 239 -15 137 0 224 4 224 10 0 24 -48 30 -230 30
l-192 0 -27 29 c-36 39 -57 107 -39 128 10 13 33 15 143 10 219 -8 217 -7 380
-166 77 -75 158 -145 180 -156 35 -16 71 -19 278 -23 273 -5 300 0 372 73 36
36 89 127 109 189 5 15 9 16 22 5 19 -16 54 -83 54 -104 0 -11 -11 -15 -39
-15 -37 0 -61 -14 -47 -28 4 -3 25 -8 49 -11 l42 -6 0 -82 c-1 -45 -4 -86 -9
-90 -4 -4 -316 -7 -692 -7 -376 1 -684 -2 -684 -6 0 -16 101 -21 724 -30 357
-5 651 -12 653 -13 2 -2 0 -42 -3 -89 l-7 -85 -66 -7 c-36 -3 -361 -9 -721
-12 -545 -5 -658 -4 -673 7 -9 8 -28 41 -42 74 -28 69 -32 56 -10 -30 22 -85
47 -107 132 -114 65 -6 68 -7 64 -31 -1 -14 -14 -46 -27 -72 l-24 -48 400 0
400 0 -40 62 c-22 33 -40 67 -40 75 0 11 61 13 335 13 227 0 335 -3 335 -10 0
-21 -32 -73 -72 -116 l-41 -44 86 0 85 0 31 113 c58 210 66 270 66 527 0 189
-4 254 -19 330 -23 116 -24 132 -10 137 27 9 64 -257 64 -467 0 -198 -20 -345
-70 -523 -16 -59 -30 -112 -30 -117 0 -6 19 -10 43 -10 57 0 80 -15 35 -23
-134 -25 -558 -32 -1888 -32 -1331 0 -1738 7 -1892 32 -52 8 -30 23 36 23 37
0 47 3 43 14 -17 44 -49 165 -67 249 -71 348 -42 726 81 1054 221 589 715
1032 1322 1188 187 48 251 54 512 51 206 -3 243 -6 350 -30z m1004 -563 c58
-62 88 -100 82 -106 -11 -11 -202 182 -194 196 9 16 24 4 112 -90z m162 -196
c68 -99 73 -107 58 -107 -8 0 -36 30 -63 67 -55 77 -63 93 -45 93 8 0 30 -24
50 -53z m153 -247 c45 -87 123 -285 132 -334 5 -29 4 -38 -6 -34 -7 2 -32 59
-55 127 -24 67 -66 167 -94 221 -33 65 -46 100 -38 103 15 5 19 -1 61 -83z
m-1824 -75 c243 -25 348 -43 409 -70 58 -26 301 -184 301 -196 0 -5 -757 -24
-934 -23 -43 0 -53 9 -174 157 -65 80 -114 119 -179 143 -34 13 -16 14 192 10
127 -3 300 -12 385 -21z m-583 -43 c44 -23 70 -54 131 -157 47 -80 62 -132 41
-140 -8 -2 -113 -16 -234 -30 -257 -30 -513 -66 -709 -101 -77 -13 -141 -22
-143 -20 -4 4 26 33 137 133 87 79 270 209 359 256 163 86 321 108 418 59z
m1293 -282 c338 -17 586 -52 805 -116 110 -32 137 -46 165 -81 18 -23 21 -36
15 -68 -14 -92 -88 -205 -151 -231 -22 -9 -99 -14 -260 -15 -304 -2 -298 -5
-502 221 -52 58 -107 113 -121 122 -32 21 -212 64 -511 123 l-225 43 150 4
c319 8 437 7 635 -2z m-2202 -2032 c7 -7 12 -19 11 -27 0 -12 -4 -10 -16 7
-19 27 -47 28 -73 2 -33 -33 -22 -100 17 -100 7 0 22 9 34 21 26 26 39 16 14
-11 -24 -27 -80 -27 -95 -1 -28 53 8 121 64 121 17 0 37 -5 44 -12z m207 -35
c3 -27 9 -58 12 -70 3 -13 1 -23 -5 -23 -5 0 -13 11 -16 25 -9 35 -52 35 -68
0 -6 -14 -15 -25 -20 -25 -12 0 -10 6 13 53 53 102 73 112 84 40z m233 18 c2
-14 -2 -28 -11 -33 -11 -6 -13 -16 -7 -43 6 -26 5 -35 -3 -32 -7 2 -13 16 -15
30 -3 21 -9 27 -26 27 -18 0 -25 -7 -29 -30 -11 -51 -25 -34 -16 18 18 97 15
93 62 90 36 -3 43 -7 45 -27z m330 0 c2 -14 -2 -28 -11 -33 -11 -6 -13 -16 -7
-43 6 -26 5 -35 -3 -32 -7 2 -13 16 -15 30 -3 21 -9 27 -26 27 -18 0 -25 -7
-29 -30 -11 -51 -25 -34 -16 18 18 97 15 93 62 90 36 -3 43 -7 45 -27z m177
20 c-32 -5 -41 -11 -43 -28 -3 -20 1 -23 27 -23 17 0 31 -4 31 -10 0 -5 -16
-10 -35 -10 -28 0 -35 -4 -35 -20 0 -15 7 -20 29 -20 17 0 33 -4 36 -10 4 -6
-13 -10 -43 -10 l-49 0 8 48 c18 97 14 92 67 91 l47 -2 -40 -6z m192 -41 c10
-27 21 -50 24 -50 4 0 10 23 14 50 4 28 11 50 16 50 11 0 11 0 -2 -77 -14 -78
-34 -82 -58 -11 -23 66 -28 67 -36 4 -4 -31 -12 -56 -17 -56 -10 0 -5 59 9
118 9 37 31 25 50 -28z m268 41 c-30 -6 -29 -5 -51 -108 -2 -13 -8 -23 -13
-23 -5 0 -5 19 0 43 14 70 11 85 -13 90 -13 2 6 4 42 4 42 1 55 -2 35 -6z
m188 -4 c13 -34 19 -127 8 -127 -6 0 -11 11 -11 25 0 21 -5 25 -28 25 -21 0
-32 -7 -40 -25 -6 -14 -16 -25 -22 -25 -6 0 6 32 26 70 37 68 56 84 67 57z
m163 -4 c-2 -10 -8 -37 -11 -60 -7 -43 -6 -43 24 -43 16 0 33 -4 36 -10 4 -6
-12 -10 -41 -10 l-46 0 7 48 c10 70 16 92 27 92 5 0 7 -8 4 -17z m384 2 c7 -9
10 -18 6 -22 -3 -4 -12 1 -19 11 -15 21 -50 18 -55 -5 -2 -9 10 -21 30 -30 18
-7 34 -21 36 -30 7 -40 -71 -67 -98 -34 -19 23 -3 31 21 10 15 -14 24 -17 36
-9 29 18 26 34 -11 49 -37 16 -47 40 -24 63 17 17 63 15 78 -3z m183 8 c-24
-2 -43 -8 -43 -13 0 -4 -3 -15 -6 -24 -5 -13 1 -16 32 -16 44 0 36 -17 -11
-22 -19 -2 -31 -9 -33 -20 -3 -15 4 -18 32 -18 20 0 36 -4 36 -10 0 -5 -20
-10 -45 -10 -25 0 -45 3 -45 7 0 3 5 35 11 70 l11 63 52 -2 c50 -1 50 -2 9 -5z
m235 -16 c2 -10 -2 -25 -9 -34 -7 -8 -12 -30 -10 -49 1 -19 -2 -34 -8 -34 -6
0 -11 14 -11 30 0 25 -4 30 -24 30 -19 0 -26 -7 -31 -30 -4 -16 -11 -30 -17
-30 -6 0 -8 10 -4 25 4 14 9 45 13 70 l6 46 46 -3 c35 -2 47 -7 49 -21z m126
1 c3 -13 9 -40 13 -62 l8 -38 29 61 c17 33 33 61 38 61 13 0 9 -12 -25 -75
-43 -81 -62 -83 -72 -9 -4 31 -9 63 -12 71 -3 7 0 13 6 13 6 0 13 -10 15 -22z
m223 9 c-3 -8 -8 -39 -12 -70 -4 -32 -12 -57 -17 -57 -6 0 -8 18 -3 48 10 71
16 92 27 92 6 0 8 -6 5 -13z m221 -17 l3 -25 -19 24 c-40 50 -111 -14 -84 -74
14 -31 38 -32 69 -3 25 24 32 9 7 -16 -20 -21 -68 -20 -89 1 -12 12 -15 26
-11 51 8 53 32 74 80 70 35 -3 41 -7 44 -28z m186 23 c-35 -3 -43 -8 -47 -29
-4 -22 -1 -24 29 -24 19 0 34 -4 34 -10 0 -5 -15 -10 -34 -10 -25 0 -35 -5
-39 -20 -4 -17 0 -20 28 -20 19 0 37 -4 40 -10 4 -6 -14 -10 -45 -10 -51 0
-52 1 -46 25 4 14 9 45 13 70 l6 45 51 -2 c48 -1 49 -2 10 -5z"/>
<path d="M2265 2080 c-100 -22 -169 -119 -196 -274 -40 -232 68 -461 217 -458
58 0 102 27 142 86 99 148 103 408 7 553 -50 76 -107 107 -170 93z m100 -82
c123 -107 139 -392 30 -534 -32 -42 -73 -64 -120 -64 -47 0 -114 61 -145 133
-31 70 -39 229 -17 308 48 162 164 235 252 157z"/>
<path d="M892 1923 c-39 -19 -74 -76 -97 -157 -14 -46 -16 -83 -12 -160 7
-123 21 -169 68 -218 29 -31 43 -38 74 -38 32 0 45 7 79 43 24 25 47 61 55 87
51 170 16 387 -71 440 -40 24 -53 24 -96 3z m99 -64 c39 -42 59 -115 59 -219
0 -144 -50 -240 -124 -240 -67 0 -106 69 -114 201 -12 210 88 355 179 258z"/>
<path d="M1350 1438 c-7 -24 -22 -62 -35 -85 l-24 -43 425 0 c233 0 424 2 424
4 0 2 -16 30 -35 61 -19 32 -37 66 -40 75 -5 15 -34 18 -262 23 -141 4 -298 7
-349 7 l-93 0 -11 -42z"/>
<path d="M1576 2528 c-23 -32 -21 -85 3 -98 11 -5 79 -10 152 -10 123 0 132 1
117 16 -9 9 -51 25 -93 35 -43 10 -80 21 -83 24 -3 3 29 5 71 5 80 0 93 8 55
34 -16 12 -47 16 -115 16 -84 0 -93 -2 -107 -22z"/>
<path d="M3143 2219 c-19 -7 -23 -16 -23 -50 0 -39 6 -48 87 -130 l87 -89 298
0 298 0 20 33 c11 17 28 55 37 84 15 48 15 53 -1 78 -30 46 -67 54 -307 64
-373 17 -473 19 -496 10z m402 -34 c229 -8 333 -20 356 -41 23 -21 24 -55 3
-97 -35 -69 -29 -67 -229 -67 -100 0 -223 3 -273 6 l-92 7 -80 76 c-44 42 -80
81 -80 88 0 6 8 19 17 28 14 14 31 16 112 11 53 -3 173 -8 266 -11z"/>
<path d="M982 336 c-10 -23 -9 -26 8 -26 21 0 23 4 11 33 -6 17 -8 16 -19 -7z"/>
<path d="M1187 364 c-4 -4 -7 -16 -7 -26 0 -15 6 -19 28 -16 19 2 27 9 27 23
0 20 -33 33 -48 19z"/>
<path d="M1517 364 c-4 -4 -7 -16 -7 -26 0 -15 6 -19 28 -16 19 2 27 9 27 23
0 20 -33 33 -48 19z"/>
<path d="M2380 341 c-13 -26 -13 -31 5 -31 9 0 15 9 15 25 0 30 -6 32 -20 6z"/>
<path d="M3298 345 c-5 -24 -3 -26 26 -23 41 4 45 41 5 46 -22 3 -27 -2 -31
-23z"/>
</g>
</svg>
